<?xml version="1.0" encoding="UTF-8" standalone="no"?>
<!--
  ~ Copyright 2015 - 2016 Xyanid
  ~
  ~ Licensed under the Apache License, Version 2.0 (the "License"); you may not use this file except in compliance with the License.
  ~ You may obtain a copy of the License at
  ~
  ~  http://www.apache.org/licenses/LICENSE-2.0
  ~
  ~ Unless required by applicable law or agreed to in writing, software distributed under the License is distributed on an "AS IS" BASIS,
  ~ WITHOUT WARRANTIES OR CONDITIONS OF ANY KIND, either express or implied.
  ~ See the License for the specific language governing permissions and limitations under the License.
  -->

<!-- Generator: Adobe Illustrator 19.1.0, SVG Export Plug-In . SVG Version: 6.00 Build 0)  -->

<svg
   xmlns:dc="http://purl.org/dc/elements/1.1/"
   xmlns:cc="http://creativecommons.org/ns#"
   xmlns:rdf="http://www.w3.org/1999/02/22-rdf-syntax-ns#"
   xmlns="http://www.w3.org/2000/svg"
   xmlns:sodipodi="http://sodipodi.sourceforge.net/DTD/sodipodi-0.dtd"
   xmlns:inkscape="http://www.inkscape.org/namespaces/inkscape"
   version="1.1"
   id="Ebene_1"
   x="0px"
   y="0px"
   viewBox="0 0 841.9 595.3"
   style="enable-background:new 0 0 841.9 595.3;"
   xml:space="preserve"
   inkscape:version="0.91 r13725"
   sodipodi:docname="stylableFX.SVG"><metadata
     id="metadata78"><rdf:RDF><cc:Work
         rdf:about=""><dc:format>image/svg+xml</dc:format><dc:type
           rdf:resource="http://purl.org/dc/dcmitype/StillImage" /></cc:Work></rdf:RDF></metadata><defs
     id="defs76" /><sodipodi:namedview
     pagecolor="#ffffff"
     bordercolor="#666666"
     borderopacity="1"
     objecttolerance="10"
     gridtolerance="10"
     guidetolerance="10"
     inkscape:pageopacity="0"
     inkscape:pageshadow="2"
     inkscape:window-width="1920"
     inkscape:window-height="1017"
     id="namedview74"
     showgrid="false"
     inkscape:zoom="2.7651739"
     inkscape:cx="491.75171"
     inkscape:cy="298.69159"
     inkscape:window-x="-8"
     inkscape:window-y="-8"
     inkscape:window-maximized="1"
     inkscape:current-layer="Ebene_1" /><style
     type="text/css"
     id="style3">
	.st0{fill:url(#SVGID_1_);}
	.st1{fill:url(#SVGID_2_);}
	.st2{fill:url(#SVGID_3_);}
</style><g
     id="g5"
     inkscape:export-xdpi="500"
     inkscape:export-ydpi="500"><path
       d="M533.1,274.4h-20l-21.1,32.4c0,0,0.1,0-9-13.8c-9.1-13.8-20.3-18.6-37.2-18.6c-14.2,0-49.9,0-49.9,0v95.5h16.3v-39.9h34   v-13.6h-34V288c0,0,23.3,0,33.6,0c10.3,0,16.2,3.4,23.1,13.8C475.6,312.2,482,322,482,322l-31.3,47.9h19.6l21.6-32.9l21.6,32.9   h19.6L501.8,322L533.1,274.4z"
       id="path7" /></g><g
     id="g9"
     inkscape:export-xdpi="500"
     inkscape:export-ydpi="500"><linearGradient
       id="SVGID_1_"
       gradientUnits="userSpaceOnUse"
       x1="337.478"
       y1="283.7131"
       x2="352.1401"
       y2="283.7131"><stop
         offset="0"
         style="stop-color:#E6441F"
         id="stop12" /><stop
         offset="0.3567"
         style="stop-color:#E6401F"
         id="stop14" /><stop
         offset="0.6431"
         style="stop-color:#E53420"
         id="stop16" /><stop
         offset="0.9043"
         style="stop-color:#E31620"
         id="stop18" /><stop
         offset="1"
         style="stop-color:#E20020"
         id="stop20" /></linearGradient><path
       class="st0"
       d="M351.6,286.5c0.4-0.8,0.5-1.7,0.5-2.7c0-1-0.2-1.9-0.5-2.7c-0.4-0.9-0.9-1.6-1.5-2.2c-0.6-0.6-1.4-1.1-2.3-1.5   c-0.9-0.4-1.8-0.6-2.9-0.6c-1,0-2,0.2-2.9,0.5c-0.9,0.4-1.7,0.9-2.4,1.5c-0.7,0.6-1.2,1.3-1.6,2.2c-0.4,0.8-0.6,1.7-0.6,2.8   c0,0.9,0.2,1.8,0.6,2.6c0.4,0.8,0.9,1.6,1.6,2.2c0.7,0.6,1.4,1.2,2.3,1.5c1.8,0.8,4.2,0.7,5.9,0c0.9-0.4,1.6-0.8,2.3-1.4   C350.7,288.1,351.2,287.3,351.6,286.5z"
       id="path22" /><linearGradient
       id="SVGID_2_"
       gradientUnits="userSpaceOnUse"
       x1="308.8364"
       y1="283.7131"
       x2="323.4965"
       y2="283.7131"><stop
         offset="0"
         style="stop-color:#79B530"
         id="stop25" /><stop
         offset="0.2375"
         style="stop-color:#75B431"
         id="stop27" /><stop
         offset="0.4281"
         style="stop-color:#69B033"
         id="stop29" /><stop
         offset="0.6026"
         style="stop-color:#4FAA37"
         id="stop31" /><stop
         offset="0.7674"
         style="stop-color:#09A13A"
         id="stop33" /><stop
         offset="0.9239"
         style="stop-color:#00973E"
         id="stop35" /><stop
         offset="1"
         style="stop-color:#009140"
         id="stop37" /></linearGradient><path
       class="st1"
       d="M323,286.5c0.4-0.9,0.5-1.7,0.5-2.7c0-1-0.2-1.9-0.5-2.7c-0.4-0.9-0.9-1.6-1.5-2.2c-0.6-0.6-1.4-1.1-2.3-1.5   c-0.9-0.4-1.8-0.6-2.9-0.6c-1,0-2,0.2-2.9,0.5c-0.9,0.4-1.7,0.9-2.4,1.5c-0.7,0.6-1.2,1.3-1.6,2.2c-0.4,0.8-0.6,1.7-0.6,2.8   c0,0.9,0.2,1.8,0.6,2.6c0.4,0.8,0.9,1.6,1.6,2.2c0.7,0.6,1.4,1.2,2.3,1.5c1.8,0.8,4.2,0.7,5.9,0c0.9-0.4,1.6-0.8,2.3-1.4   C322.1,288.1,322.6,287.3,323,286.5z"
       id="path39" /><linearGradient
       id="SVGID_3_"
       gradientUnits="userSpaceOnUse"
       x1="366.6567"
       y1="283.7116"
       x2="381.3227"
       y2="283.7116"><stop
         offset="0"
         style="stop-color:#009EE0"
         id="stop42" /><stop
         offset="0.2675"
         style="stop-color:#009CDE"
         id="stop44" /><stop
         offset="0.4824"
         style="stop-color:#0098D8"
         id="stop46" /><stop
         offset="0.679"
         style="stop-color:#0091CE"
         id="stop48" /><stop
         offset="0.8635"
         style="stop-color:#0086BF"
         id="stop50" /><stop
         offset="1"
         style="stop-color:#007CB0"
         id="stop52" /></linearGradient><path
       class="st2"
       d="M380.8,286.5c0.4-0.9,0.5-1.7,0.5-2.7c0-1-0.2-1.9-0.5-2.7c-0.4-0.9-0.9-1.6-1.5-2.2c-0.6-0.6-1.4-1.1-2.3-1.5   c-0.9-0.4-1.8-0.6-2.9-0.6c-1.1,0-2,0.2-2.9,0.5c-0.9,0.4-1.7,0.9-2.4,1.5c-0.7,0.6-1.2,1.3-1.6,2.2c-0.4,0.8-0.6,1.7-0.6,2.8   c0,0.9,0.2,1.8,0.6,2.6c0.4,0.8,0.9,1.6,1.6,2.2c0.7,0.6,1.4,1.1,2.3,1.5c1.8,0.8,4.2,0.7,5.9,0c0.9-0.4,1.7-0.8,2.3-1.4   C379.9,288,380.4,287.3,380.8,286.5z"
       id="path54" /></g><g
     id="g56"
     inkscape:export-xdpi="500"
     inkscape:export-ydpi="500"><path
       d="M310.5,256.2v-1.6c0.5,0.4,1.1,0.8,1.8,1s1.3,0.4,1.9,0.4c2.4,0,3.5-1,3.5-2.9c0-0.7-0.3-1.2-0.8-1.7s-1.4-1-2.5-1.5   c-1.4-0.6-2.4-1.3-3-1.9s-0.9-1.5-0.9-2.4c0-1.2,0.5-2.2,1.4-3s2.1-1.1,3.4-1.1c1.3,0,2.4,0.3,3.3,0.8v1.5   c-1.1-0.7-2.3-1.1-3.5-1.1c-1,0-1.8,0.3-2.4,0.8c-0.6,0.5-0.9,1.2-0.9,2c0,0.7,0.2,1.3,0.6,1.7s1.2,1,2.5,1.5   c1.6,0.7,2.6,1.4,3.2,2c0.6,0.6,0.9,1.4,0.9,2.4c0,1.2-0.4,2.2-1.3,3c-0.9,0.8-2.1,1.2-3.7,1.2   C312.6,257.2,311.4,256.9,310.5,256.2z"
       id="path58" /><path
       d="M347.8,256.6c-0.7,0.3-1.4,0.5-2,0.5c-2.2,0-3.3-1.3-3.3-4v-10.1h-2.7v-1.2h2.7v-3.9c0.2-0.1,0.4-0.2,0.7-0.2   c0.2-0.1,0.5-0.1,0.7-0.2v4.4h4v1.2h-4v9.9c0,1,0.2,1.8,0.5,2.2c0.3,0.5,0.9,0.7,1.7,0.7c0.6,0,1.2-0.2,1.8-0.5V256.6z"
       id="path60" /><path
       d="M373.4,259.9c-0.5,1.3-1.2,2.3-1.8,3s-1.5,1-2.6,1c-0.4,0-0.8-0.1-1.2-0.2v-1.3c0.4,0.1,0.8,0.2,1.2,0.2   c1.2,0,2.1-0.8,2.8-2.5l1.4-3.3l-5.7-14.9h1.5l4.5,12.2c0.1,0.3,0.2,0.5,0.2,0.6c0,0.2,0.1,0.4,0.1,0.5h0.1l0.4-1l4.8-12.3h1.5   L373.4,259.9z"
       id="path62" /><path
       d="M402.3,256.8v-22.2h1.3v22.2H402.3z"
       id="path64" /><path
       d="M436.3,256.8v-3h-0.1c-0.5,1-1.2,1.8-2.1,2.5c-0.9,0.6-1.9,0.9-3,0.9c-1.4,0-2.6-0.4-3.4-1.2s-1.2-1.8-1.2-3   c0-2.6,1.7-4.2,5.2-4.7l4.6-0.7c0-3.2-1.2-4.8-3.6-4.8c-1.7,0-3.3,0.7-4.8,2v-1.6c0.6-0.4,1.3-0.8,2.3-1.1c1-0.3,1.8-0.5,2.7-0.5   c1.5,0,2.7,0.5,3.6,1.4s1.3,2.3,1.3,4.2v9.8H436.3z M432.2,249.4c-1.6,0.2-2.7,0.6-3.3,1.1s-1,1.3-1,2.5c0,0.9,0.3,1.6,0.9,2.2   s1.4,0.9,2.5,0.9c1.4,0,2.6-0.5,3.6-1.6c1-1.1,1.4-2.4,1.4-4.1v-1.5L432.2,249.4z"
       id="path66" /><path
       d="M462.6,254.2L462.6,254.2l-0.1,2.7h-1.3v-22.2h1.3v10.3h0.1c0.5-1.1,1.3-2,2.3-2.6c1-0.6,2.1-0.9,3.3-0.9   c1.9,0,3.4,0.7,4.5,2c1.1,1.3,1.6,3.1,1.6,5.4c0,2.5-0.6,4.5-1.9,6.1s-2.9,2.3-4.8,2.3C465.3,257.2,463.6,256.2,462.6,254.2z    M462.5,248.6v1.9c0,1.5,0.5,2.8,1.4,3.9s2.2,1.6,3.7,1.6c1.5,0,2.8-0.7,3.7-2s1.4-3,1.4-5.2c0-1.9-0.4-3.4-1.3-4.5   s-2.1-1.7-3.5-1.7c-1.7,0-3.1,0.6-4.1,1.8S462.5,247,462.5,248.6z"
       id="path68" /><path
       d="M496.9,256.8v-22.2h1.3v22.2H496.9z"
       id="path70" /><path
       d="M522.4,249.4c0,2.1,0.5,3.7,1.4,4.8c1,1.2,2.3,1.7,3.9,1.7c1.7,0,3.3-0.6,4.9-1.9v1.4c-1.6,1.1-3.3,1.7-5.2,1.7   c-1.9,0-3.5-0.7-4.7-2.1s-1.8-3.3-1.8-5.9c0-2.2,0.6-4,1.9-5.5c1.2-1.5,2.9-2.2,4.9-2.2c1.9,0,3.3,0.7,4.3,2s1.5,3.1,1.5,5.4v0.6   H522.4z M532.1,248.2c-0.1-1.7-0.5-3.1-1.2-4s-1.8-1.4-3.2-1.4c-1.4,0-2.6,0.5-3.5,1.4c-0.9,0.9-1.5,2.3-1.7,4.1H532.1z"
       id="path72" /></g></svg>